<svg xmlns="http://www.w3.org/2000/svg" width="1200" height="800" viewBox="0 0 1200 800">
    <defs>
      <linearGradient id="bg" x1="0" y1="0" x2="1" y2="1">
        <stop offset="0" stop-color="#FDF8F3"/><stop offset="1" stop-color="#F5EDE4"/>
      </linearGradient>
      <radialGradient id="egg" cx="45%" cy="35%" r="70%">
        <stop offset="0" stop-color="#ffffff"/><stop offset="1" stop-color="#E8DDD4"/>
      </radialGradient>
      <linearGradient id="choc" x1="0" y1="0" x2="0" y2="1">
        <stop offset="0" stop-color="#5D4037"/><stop offset="1" stop-color="#3E2723"/>
      </linearGradient>
      <filter id="shadow" x="-20%" y="-20%" width="140%" height="140%">
        <feDropShadow dx="0" dy="16" stdDeviation="18" flood-color="#000" flood-opacity=".25"/>
      </filter>
    </defs>
    <rect width="1200" height="800" fill="url(#bg)"/>
    <g filter="url(#shadow)">
      <ellipse cx="620" cy="660" rx="280" ry="60" fill="#000" opacity=".08"/>
      <path d="M600 120
               C430 120 320 280 320 430
               C320 590 445 710 600 710
               C755 710 880 590 880 430
               C880 280 770 120 600 120Z" fill="url(#egg)"/>
      <path d="M360 300
               C420 250 460 340 520 300
               C560 280 600 330 650 300
               C710 265 760 340 820 300
               L820 360
               C780 390 760 360 720 390
               C680 420 650 360 610 390
               C560 430 520 350 480 390
               C440 430 410 350 360 380Z" fill="url(#choc)"/>
      <circle cx="470" cy="520" r="10" fill="#D4A484" opacity=".9"/>
      <circle cx="520" cy="560" r="12" fill="#D4A484" opacity=".8"/>
      <circle cx="680" cy="540" r="11" fill="#D4A484" opacity=".85"/>
      <circle cx="735" cy="585" r="9" fill="#D4A484" opacity=".9"/>
      <path d="M360 300
               C420 250 460 340 520 300
               C560 280 600 330 650 300
               C710 265 760 340 820 300" fill="none" stroke="#D4A484" stroke-width="6" opacity=".35"/>
      <text x="600" y="780" text-anchor="middle" font-family="Arial, sans-serif" font-size="28" fill="#8D6E63">
        (substitua por sua foto real do ovo)
      </text>
    </g>
    </svg>